# xmcd
#
# Track frame offsets: 
#        150
#        17778
#        39860
#        60022
#        79850
#        102970
#        123395
#        149204
#        161825
#        178127
#        198517
#        218072
#        252002
#
# Disc length: 4184 seconds
#
# Revision: 0
# Processed by: cddbd v1.5.2PL0 Copyright (c) Steve Scherf et al.
# Submitted via: ExactAudioCopyFreeDBPlugin 1.0
#
DISCID=b210560d
DTITLE=Joss Stone - Colour Me Free
DYEAR=2009
DGENRE=Soul
TTITLE0=Free Me
TTITLE1=Could Have Been You
TTITLE2=Parallel Lines Feat. Jeff Beck and Sheila E.
TTITLE3=Lady
TTITLE4=4 And 20
TTITLE5=Big Ol' Game Feat. Raphael Saadiq
TTITLE6=Govermentalist Feat. NaS
TTITLE7=Incredible
TTITLE8=You Got The Love
TTITLE9=I Believe It To My Soul Feat. David Sanborn
TTITLE10=Stalemate Feat. Jamie Hartman
TTITLE11=Girlfriend On Demand
TTITLE12=Mr. Wankerman (Bonus Track)
EXTD=
EXTT0=
EXTT1=
EXTT2=
EXTT3=
EXTT4=
EXTT5=
EXTT6=
EXTT7=
EXTT8=
EXTT9=
EXTT10=
EXTT11=
EXTT12=
PLAYORDER=
